<?xml version="1.0"?>
<svg id="Capa_2" data-name="Capa 2" xmlns="http://www.w3.org/2000/svg" viewBox="0 0 198.93 148.98">
  <g id="Capa_1-2" data-name="Capa 1">
    <path d="M198.91,54.59c.2,2.21-1.17,4.18-1.29,6.34.13,3.61-1.32,3.78-4.09,3.21-1.46-.2-3,.03-4.42.46-1.12.36-.54,1.07.06,1.67,1.01,1.27,3.73,3.7,1.25,4.86-1.08.51-2.3.71-3.36,1.25-2.89,1.56-5.39,3.78-8.17,5.54-1.56,1.06-3.32,1.76-5.03,2.52-1,.5-1.95,1.06-2.99,1.46-3.46,1.56-5.31,5-7.87,7.66-1.03,1.19-2.35,1.99-3.5,3.03-1.27,1.31-2.38,2.8-3.27,4.41-1.01,1.83-1.63,3.85-2.63,5.69-.51.93-1.18,1.73-1.92,2.45-.8.75-.76,1.36.17,2.04,2.56,2.06,5.22,4.02,8.02,5.76,1.78,1.17,3.68,2.24,5.2,3.75,1.41,1.42,2.31,3.26,3.17,5.06.93,1.93,1.93,3.88,2.68,5.9.37.98.89,1.89,1.56,2.7,1.11,1.4,2.37,2.61,3.58,3.89.58.63,2.27,1.69,1.19,2.51-.52.26-1.18.2-1.78.17-1.63-.11-3.29.19-4.83.76-.52.22-1.26.29-1.58.78-.32.63.21,1.24.62,1.96.86,1.45,2.12,2.63,2.8,4.18.21.59.1,1.14-.37,1.4-.67.34-1.46.11-2.17-.08-1.08-.3-2.26-.57-3.33-.42-1.12.1-2.45,1.67-3.41.46-.71-.97-.43-2.3-.89-3.36-.48-1.22-1.65-1.93-2.46-2.92-.87-1.01-1.4-2.33-2.05-3.44-.53-.92-1.11-1.86-1.99-2.48-2.13-1.38-5-1.83-7.33-2.44-3.32-.82-6.65-1.74-10-2.48-6.89-1.54-7.26-6.29-9.66-4.62-7.6,4.98-16.27,8.31-25.21,9.93-12.81,2.41-34.49,1.84-45.39-5.74-.73-.64-1.59-1.01-2.57-.73-7.44,1.7-15.25,2.43-22.87,1.37-1.03-.15-2.07-.29-3.09-.46-.93-.15-1.88-.31-2.81-.46-.48-.07-.94-.06-1.33.11-2.01,1.1-3.62,5.94-5.08,7.96-1.16,1.63-2.43,3.17-3.37,4.95-1.16,2.06-1.94,4.36-2.59,6.64-.31,1.02-1.13,1.67-2.02.75-.7-.83-1.11-1.89-1.61-2.85-.91-1.84-1.8-3.73-2.02-5.78-.3-3.08,1.31-3.23,2.5-5.4.49-1.01.39-2.2.77-3.26.29-.84.77-1.58,1.13-2.39.86-1.93,1.31-4.04,1.74-6.13.19-.97.38-1.94.53-2.92.08-.56.26-1.63-.64-1.16-1.34.81-2.64,1.86-3.75,2.98-1.69,1.76-2.92,3.91-4.15,6.02-.74,1.28-1.4,2.59-2.05,3.92-.21.41-.51.92-.89,1.14-.9.5-1.26-.83-1.29-1.54-.26-2.12-1.44-4.01-2.38-5.89-1.33-2.55,1.11-3.7,2.46-5.36.81-.97,1.18-2.3,2.08-3.16.47-.46,1.03-.78,1.56-1.15,1.12-.72,1.86-1.87,2.3-3.1.82-2.19,1.73-4.38,2.54-6.55.55-1.48,1.16-2.97,1.92-4.34.58-1.15,1.19-2.2,2.31-2.92,1.42-.95,3.01-1.54,4.48-2.38,2.37-1.31,4.65-2.73,6.75-4.43,1.79-1.29,1.42-3.69,1.9-5.61.52-2.9,1.26-5.76,2.47-8.37.66-1.42,1.36-2.85,2.04-4.25.42-.83,4.12-6.2,5-6.88,3.22-3.05,7.55-4.49,11.63-5.91,1.13-.39,2.27-.84,3.43-1.17.55-.16,1.26-.37,1.06-1.06-.21-.7-.91-1.82-.6-2.46.56-1.04,2.36-.65,3.4-.58,1.6.22,3.13.5,4.7.66.44.04,1.61.15.72-.5-2.88-1.83-5.47-4.22-7.8-6.46-2.91-2.77-5.93-5.86-7.15-9.72-.71-1.93-.47-3.01,1.66-2.24,3.84,1.31,7.67,2.65,11.51,3.95.19.04.9.34.8.08-.48-.57-1.47-1.24-2.07-1.74-4.7-3.77-8.82-8.21-12.23-13.21-1.35-1.82-2.55-3.74-3.48-5.82-.67-1.34-.52-2.41,1.09-2.32,1.84.15,3.72,1,5.48,1.6.18.05.58.19.47-.08-1.47-1.7-3.07-3.44-4.48-5.2-2.47-3.02-4.61-6.31-6.89-9.48-.74-1.14-1.44-2.31-2-3.54-.58-1.3.02-1.7,1.18-1.57,1.2.19,2.37.63,3.5,1.11,5,2.21,9.97,4.52,14.94,6.73,1.12.48,2.29,1.08,3.41,1.5.28.09.39.07.31-.08-.52-.7-1.31-1.43-1.87-2.12-1.26-1.51-2.61-3.04-3.48-4.78-1.03-2.21.08-2.74,1.99-1.79,4.23,1.96,8.3,4.24,12.59,6.07,16.03,7.39,32.94,12.48,49.41,18.75,1.97.78,4.16,1.54,5.91,2.62,1.05.68,1.82,1.68,2.61,2.64,2.7,3.31,5.11,6.88,7.78,10.19,1.41,1.79,2.84,3.54,4.47,5.11.6.57,1.16,1.3,1.92,1.63,1.76.62.59-2.02.3-2.72-.7-1.72-2.09-5.76-.33-7.1.82-.44,1.86.02,2.72.2,1.95.56,3.96.67,5.95.89,3.14.56,5.61,4.95,8.46,6.63.58.37,1.22.63,1.87.86,3.05,1.08,5.93,2.75,8.88,4.15,1.56.75,3.28.97,4.98,1.14,3.75.34,7.57.02,11.33-.15,2.58-.1,5.22-.36,7.82-.38,2.54-.12,4.64.54,4.82,3.41v.04Z"></path>
  </g>
</svg>
