<?xml version="1.0"?>
<svg id="Capa_2" data-name="Capa 2" xmlns="http://www.w3.org/2000/svg" viewBox="0 0 536.45 123.77">
  <g id="Capa_1-2" data-name="Capa 1">
    <g>
      <path d="M0,99.28c0-7.89,2.68-13.92,8.03-18.09,5.35-4.16,13.22-7.27,23.6-9.33l29.2-5.68v-.49c0-4.65-1.22-8.05-3.65-10.22-2.43-2.16-5.81-3.24-10.14-3.24-4.87,0-8.38,1.22-10.54,3.65-2.16,2.43-3.41,5.92-3.73,10.46H1.46c.54-6.49,2.03-12,4.46-16.55,2.43-4.54,5.65-8.27,9.65-11.19,4-2.92,8.68-5.05,14.03-6.41,5.35-1.35,11.11-2.03,17.28-2.03,14.06,0,24.93,3.16,32.61,9.49,7.68,6.33,11.52,15.82,11.52,28.47v53.37h-29.2l-.49-12c-2.81,4.11-6.89,7.52-12.25,10.22s-11.76,4.06-19.22,4.06c-3.68,0-7.33-.41-10.95-1.22-3.62-.81-6.81-2.19-9.57-4.14s-5-4.49-6.73-7.62c-1.73-3.14-2.6-6.98-2.6-11.52ZM16.06,0h28.23l13.14,25.31h-21.58L16.06,0ZM31.63,93.76c0,5.41,3.62,8.11,10.87,8.11,5.51,0,9.95-1.67,13.3-5.03s5.03-8.11,5.03-14.28v-2.11l-18.49,3.89c-3.57.87-6.25,2.03-8.03,3.49s-2.68,3.43-2.68,5.92Z"></path>
      <path d="M100.41,32.44h29.2l.49,16.06c2.27-6.71,5.78-11.44,10.54-14.19,4.76-2.76,10.27-4.14,16.55-4.14,9.3,0,16.71,2.95,22.22,8.84,5.52,5.9,8.27,14.25,8.27,25.06v57.43h-31.31v-48.02c0-6.16-.84-10.63-2.51-13.38-1.68-2.76-4.68-4.14-9-4.14s-7.33,1.38-9.65,4.14c-2.33,2.76-3.49,7.22-3.49,13.38v48.02h-31.31V32.44Z"></path>
      <path d="M263.12,121.5l-.49-14.44c-2.81,5.52-6.73,9.68-11.76,12.49-5.03,2.81-10.79,4.22-17.28,4.22-5.73,0-10.95-1.11-15.65-3.33-4.71-2.21-8.71-5.38-12-9.49-3.3-4.11-5.87-9.03-7.71-14.76-1.84-5.73-2.76-12.17-2.76-19.3s.92-13.44,2.76-19.22c1.84-5.78,4.41-10.71,7.71-14.76,3.3-4.06,7.3-7.19,12-9.41,4.7-2.21,9.92-3.33,15.65-3.33,6.49,0,12.17,1.41,17.03,4.22,4.87,2.81,8.7,6.87,11.52,12.17V2.43h30.01v119.07h-29.04ZM261.33,76.89c0-7.03-1.49-12.46-4.46-16.3-2.98-3.84-7.22-5.76-12.73-5.76s-9.57,1.89-12.49,5.68c-2.92,3.79-4.38,9.19-4.38,16.22s1.49,12.68,4.46,16.63c2.97,3.95,7.16,5.92,12.57,5.92s9.6-1.97,12.57-5.92c2.97-3.95,4.46-9.43,4.46-16.47Z"></path>
      <path d="M299.78,99.28c0-7.89,2.68-13.92,8.03-18.09,5.35-4.16,13.22-7.27,23.6-9.33l29.2-5.68v-.49c0-4.65-1.22-8.05-3.65-10.22-2.43-2.16-5.81-3.24-10.14-3.24-4.87,0-8.38,1.22-10.54,3.65-2.17,2.43-3.41,5.92-3.73,10.46h-31.31c.54-6.49,2.03-12,4.46-16.55,2.43-4.54,5.65-8.27,9.65-11.19,4-2.92,8.68-5.05,14.03-6.41,5.35-1.35,11.11-2.03,17.28-2.03,14.06,0,24.93,3.16,32.61,9.49,7.68,6.33,11.52,15.82,11.52,28.47v53.37h-29.2l-.49-12c-2.81,4.11-6.89,7.52-12.25,10.22-5.35,2.7-11.76,4.06-19.22,4.06-3.68,0-7.33-.41-10.95-1.22-3.62-.81-6.81-2.19-9.57-4.14s-5-4.49-6.73-7.62c-1.73-3.14-2.59-6.98-2.59-11.52ZM331.41,93.76c0,5.41,3.62,8.11,10.87,8.11,5.52,0,9.95-1.67,13.3-5.03s5.03-8.11,5.03-14.28v-2.11l-18.49,3.89c-3.57.87-6.25,2.03-8.03,3.49-1.78,1.46-2.68,3.43-2.68,5.92Z"></path>
      <path d="M400.19,2.27h31.31v119.23h-31.31V2.27Z"></path>
      <path d="M439.61,76.89c0-7.03,1.19-13.41,3.57-19.14,2.38-5.73,5.7-10.62,9.98-14.68,4.27-4.06,9.43-7.22,15.49-9.49,6.06-2.27,12.76-3.41,20.12-3.41s14.14,1.14,20.03,3.41c5.89,2.27,10.89,5.46,15,9.57,4.11,4.11,7.24,9.06,9.41,14.84,2.16,5.79,3.24,12.19,3.24,19.22v6.65h-64.56c.86,5.19,2.73,9.25,5.6,12.17,2.86,2.92,6.62,4.38,11.27,4.38,6.81,0,11.62-3.03,14.44-9.08h32.93c-2.81,10.06-8.35,17.98-16.63,23.77-8.27,5.79-18.52,8.68-30.74,8.68-7.36,0-14.06-1.14-20.12-3.41-6.06-2.27-11.22-5.46-15.49-9.57-4.27-4.11-7.6-9.03-9.98-14.76-2.38-5.73-3.57-12.11-3.57-19.14ZM505.47,69.75c-.87-5.19-2.71-9.19-5.52-12-2.81-2.81-6.54-4.22-11.19-4.22s-8.27,1.41-11.19,4.22c-2.92,2.81-4.81,6.81-5.68,12h33.58Z"></path>
    </g>
  </g>
</svg>
